<svg xmlns="http://www.w3.org/2000/svg" version="1.1" xmlns:xlink="http://www.w3.org/1999/xlink" width="23.921932mm" height="23.921932mm"><svg width="23.921932mm" height="23.921932mm" viewBox="0 0 23.921932 23.921932" version="1.1" id="SvgjsSvg1035" xml:space="preserve" inkscape:version="1.4.2 (f4327f4, 2025-05-13)" sodipodi:docname="icon.svg" inkscape:export-filename="logo tipaix Versionssss.png" inkscape:export-xdpi="234.1515" inkscape:export-ydpi="234.1515" xmlns:inkscape="http://www.inkscape.org/namespaces/inkscape" xmlns:sodipodi="http://sodipodi.sourceforge.net/DTD/sodipodi-0.dtd" xmlns="http://www.w3.org/2000/svg" xmlns:svg="http://www.w3.org/2000/svg"><sodipodi:namedview id="SvgjsSodipodi:namedview1034" pagecolor="#ffffff" bordercolor="#000000" borderopacity="0.25" inkscape:showpageshadow="2" inkscape:pageopacity="0.0" inkscape:pagecheckerboard="0" inkscape:deskcolor="#d1d1d1" inkscape:document-units="mm" inkscape:zoom="1.4378367" inkscape:cx="46.945526" inkscape:cy="16.343998" inkscape:window-width="1920" inkscape:window-height="1009" inkscape:window-x="-8" inkscape:window-y="-8" inkscape:window-maximized="1" inkscape:current-layer="g9101"></sodipodi:namedview><defs id="SvgjsDefs1033"><inkscape:path-effect effect="bspline" id="SvgjsInkscape:path-effect1032" is_visible="true" lpeversion="1.3" weight="33.333333" steps="2" helper_size="0" apply_no_weight="true" apply_with_weight="true" only_selected="false" uniform="false"></inkscape:path-effect><inkscape:path-effect effect="bspline" id="SvgjsInkscape:path-effect1031" is_visible="true" lpeversion="1.3" weight="33.333333" steps="2" helper_size="0" apply_no_weight="true" apply_with_weight="true" only_selected="false" uniform="false"></inkscape:path-effect></defs><g inkscape:label="Copie de Logo 3" inkscape:groupmode="layer" id="SvgjsG1030" transform="translate(-96.365921,-141.48878)"><rect style="display:none;fill:#6e5597;fill-opacity:1;stroke-width:1;stroke-linejoin:round" id="SvgjsRect1029" width="23.921932" height="23.921932" x="96.365921" y="141.48878"></rect><g id="SvgjsG1028" inkscape:label="Rouleau" style="display:inline" transform="matrix(0.59085095,0,0,0.59085095,72.299176,70.382611)"><path style="display:inline;fill:#ffffff;fill-opacity:1;stroke:#000000;stroke-width:0.529167;stroke-linejoin:round;stroke-dasharray:none;stroke-opacity:1" d="M 76.834773,146.80582 65.416905,139.7469 c 0,0 2.244538,1.49636 0,0 -2.244537,-1.49635 -4.846902,-9.66127 -11.385338,-9.79139 -6.538439,-0.13012 -8.978154,5.10714 -8.913095,8.75045 0.06506,3.64331 1.496359,7.44927 6.668555,8.36009 5.172197,0.91083 19.1599,2.14695 19.1599,2.14695 z" id="SvgjsPath1027" sodipodi:nodetypes="ccsssscc"></path><path style="fill:none;stroke:#000000;stroke-width:0.529167;stroke-linejoin:round;stroke-dasharray:none;stroke-opacity:1" d="m 73.776998,144.9191 0.09759,3.09031" id="SvgjsPath1026"></path><path style="fill:none;stroke:#000000;stroke-width:0.529167;stroke-linejoin:round;stroke-dasharray:none;stroke-opacity:1" d="m 71.077047,143.19504 -0.195178,5.98543" id="SvgjsPath1025"></path><path style="fill:none;stroke:#000000;stroke-width:0.264583;stroke-linejoin:round;stroke-dasharray:none;stroke-opacity:1" d="M 71.044516,144.39863 56.815515,134.27855" id="SvgjsPath1024" sodipodi:nodetypes="cc"></path><circle style="fill:none;stroke:#000000;stroke-width:0.27991;stroke-linejoin:round;stroke-dasharray:none;stroke-opacity:1" id="SvgjsCircle1023" cx="61.934269" cy="142.1799" r="3.4306011"></circle><circle style="fill:none;stroke:#000000;stroke-width:0.27991;stroke-linejoin:round;stroke-dasharray:none;stroke-opacity:1" id="SvgjsCircle1022" cx="61.934269" cy="142.21432" r="0.92917734"></circle><path style="fill:none;stroke:#000000;stroke-width:0.264583;stroke-linejoin:round;stroke-dasharray:none;stroke-opacity:1" d="M 70.845392,147.39761 51.220831,143.75717" id="SvgjsPath1021" sodipodi:nodetypes="cc"></path><path style="fill:#e8e8e8;fill-opacity:1;stroke:#000000;stroke-width:0.264583;stroke-linejoin:round;stroke-dasharray:none;stroke-opacity:1" d="m 56.101534,132.4217 c -0.299025,0.65556 0.529834,1.02643 0.89707,0.56355 0.05408,-0.0682 1.161594,0.82806 1.161594,0.82806 -0.520648,0.58281 0.135054,1.30832 0.805065,0.87407 0,0 0.978353,1.4622 0.885574,1.50662 -0.542873,0.25992 -0.320835,0.89293 0.322024,0.78207 0.06104,-0.0105 0.0575,1.64463 0.0575,1.64463 -0.713057,0 -0.736057,0.79356 -0.046,0.87407 0,0 -0.276179,1.70245 -0.322026,1.67914 -0.67889,-0.3452 -1.091964,0.35701 -0.575046,0.79356 0.04393,0.0371 -1.035084,1.50662 -1.035084,1.50662 -0.427067,-0.44571 -1.142134,0.0866 -0.793562,0.59805 0,0 -1.361642,0.88222 -1.403113,0.80507 -0.315933,-0.58772 -0.970948,-0.3924 -0.851071,0.20701 0.0115,0.0575 -1.759642,0.26452 -1.759642,0.26452 -1.69e-4,-0.57453 -0.88554,-0.67234 -0.977578,-0.069 -0.01041,0.0682 -1.587128,-0.35653 -1.564127,-0.40253 0.326761,-0.65352 -0.35271,-1.09451 -0.816565,-0.54055 -0.01651,0.0197 -1.414615,-1.06959 -1.414615,-1.06959 0.463043,-0.39564 0.06159,-1.13115 -0.598049,-0.71305 -0.05495,0.0348 -0.759061,-1.42612 -0.759061,-1.42612 0.644185,-0.16092 0.372419,-0.99911 -0.322027,-0.86257 -0.05754,0.0113 -0.276022,-1.70214 -0.195514,-1.70214 0.701556,0 0.66255,-0.74536 0.0345,-0.95457 0,0 0.391031,-1.69064 0.448537,-1.66764 0.684922,0.27396 1.137848,-0.43356 0.517541,-0.82806 0,0 0.867541,-1.22431 0.908574,-1.1846 0.553553,0.53564 1.241351,-0.18675 0.87407,-0.62105 -0.04331,-0.0512 1.380111,-0.92008 1.380111,-0.92008 0.325002,0.65799 1.196115,0.41423 0.989082,-0.33352 -0.0092,-0.0333 1.506621,-0.18402 1.506621,-0.18402 0.05273,0.84121 0.921217,0.84877 0.989079,0.0575 0.0044,-0.0512 1.656136,0.49454 1.656136,0.49454 z" id="SvgjsPath1020" sodipodi:nodetypes="cssssssssssssssssssssssssssssssscc"></path><circle style="fill:none;stroke:#000000;stroke-width:0.264583;stroke-linejoin:round;stroke-dasharray:none;stroke-opacity:1" id="SvgjsCircle1019" cx="53.446033" cy="138.6409" r="5.3673739"></circle><circle style="fill:none;stroke:#000000;stroke-width:0.264583;stroke-linejoin:round;stroke-dasharray:none;stroke-opacity:1" id="SvgjsCircle1018" cx="53.511093" cy="138.60837" r="1.3337111"></circle></g></g></svg><style>@media (prefers-color-scheme: light) { :root { filter: none; } }
@media (prefers-color-scheme: dark) { :root { filter: none; } }
</style></svg>